<mxfile host="app.diagrams.net" modified="2021-10-01T07:57:16.767Z" agent="5.0 (Windows NT 10.0; Win64; x64) AppleWebKit/537.36 (KHTML, like Gecko) Chrome/94.0.4606.71 Safari/537.36" etag="cxDpHXsQBLzrNRJ6F8lY" version="14.9.6" type="github">
  <diagram id="R2lEEEUBdFMjLlhIrx00" name="Page-1">
    <mxGraphModel dx="1278" dy="1688" grid="1" gridSize="10" guides="1" tooltips="1" connect="1" arrows="1" fold="1" page="1" pageScale="1" pageWidth="850" pageHeight="1100" math="0" shadow="0" extFonts="Permanent Marker^https://fonts.googleapis.com/css?family=Permanent+Marker">
      <root>
        <mxCell id="0" />
        <mxCell id="1" parent="0" />
        <mxCell id="DO0bj1hmB-chi1vhj7tz-1" value="User" style="shape=table;startSize=30;container=1;collapsible=1;childLayout=tableLayout;fixedRows=1;rowLines=0;fontStyle=1;align=center;resizeLast=1;" vertex="1" parent="1">
          <mxGeometry x="970" y="-400" width="190" height="190" as="geometry" />
        </mxCell>
        <mxCell id="DO0bj1hmB-chi1vhj7tz-2" value="" style="shape=partialRectangle;collapsible=0;dropTarget=0;pointerEvents=0;fillColor=none;top=0;left=0;bottom=0;right=0;points=[[0,0.5],[1,0.5]];portConstraint=eastwest;" vertex="1" parent="DO0bj1hmB-chi1vhj7tz-1">
          <mxGeometry y="30" width="190" height="30" as="geometry" />
        </mxCell>
        <mxCell id="DO0bj1hmB-chi1vhj7tz-3" value="PK" style="shape=partialRectangle;connectable=0;fillColor=none;top=0;left=0;bottom=0;right=0;fontStyle=1;overflow=hidden;" vertex="1" parent="DO0bj1hmB-chi1vhj7tz-2">
          <mxGeometry width="30" height="30" as="geometry" />
        </mxCell>
        <mxCell id="DO0bj1hmB-chi1vhj7tz-4" value="_id ObjectId" style="shape=partialRectangle;connectable=0;fillColor=none;top=0;left=0;bottom=0;right=0;align=left;spacingLeft=6;fontStyle=1;overflow=hidden;" vertex="1" parent="DO0bj1hmB-chi1vhj7tz-2">
          <mxGeometry x="30" width="160" height="30" as="geometry" />
        </mxCell>
        <mxCell id="DO0bj1hmB-chi1vhj7tz-8" value="" style="shape=partialRectangle;collapsible=0;dropTarget=0;pointerEvents=0;fillColor=none;top=0;left=0;bottom=0;right=0;points=[[0,0.5],[1,0.5]];portConstraint=eastwest;" vertex="1" parent="DO0bj1hmB-chi1vhj7tz-1">
          <mxGeometry y="60" width="190" height="30" as="geometry" />
        </mxCell>
        <mxCell id="DO0bj1hmB-chi1vhj7tz-9" value="" style="shape=partialRectangle;connectable=0;fillColor=none;top=0;left=0;bottom=0;right=0;editable=1;overflow=hidden;" vertex="1" parent="DO0bj1hmB-chi1vhj7tz-8">
          <mxGeometry width="30" height="30" as="geometry" />
        </mxCell>
        <mxCell id="DO0bj1hmB-chi1vhj7tz-10" value="email String" style="shape=partialRectangle;connectable=0;fillColor=none;top=0;left=0;bottom=0;right=0;align=left;spacingLeft=6;overflow=hidden;fontStyle=1" vertex="1" parent="DO0bj1hmB-chi1vhj7tz-8">
          <mxGeometry x="30" width="160" height="30" as="geometry" />
        </mxCell>
        <mxCell id="DO0bj1hmB-chi1vhj7tz-39" style="shape=partialRectangle;collapsible=0;dropTarget=0;pointerEvents=0;fillColor=none;top=0;left=0;bottom=0;right=0;points=[[0,0.5],[1,0.5]];portConstraint=eastwest;" vertex="1" parent="DO0bj1hmB-chi1vhj7tz-1">
          <mxGeometry y="90" width="190" height="30" as="geometry" />
        </mxCell>
        <mxCell id="DO0bj1hmB-chi1vhj7tz-40" style="shape=partialRectangle;connectable=0;fillColor=none;top=0;left=0;bottom=0;right=0;editable=1;overflow=hidden;" vertex="1" parent="DO0bj1hmB-chi1vhj7tz-39">
          <mxGeometry width="30" height="30" as="geometry" />
        </mxCell>
        <mxCell id="DO0bj1hmB-chi1vhj7tz-41" value="password String" style="shape=partialRectangle;connectable=0;fillColor=none;top=0;left=0;bottom=0;right=0;align=left;spacingLeft=6;overflow=hidden;fontStyle=1" vertex="1" parent="DO0bj1hmB-chi1vhj7tz-39">
          <mxGeometry x="30" width="160" height="30" as="geometry" />
        </mxCell>
        <mxCell id="DO0bj1hmB-chi1vhj7tz-48" style="shape=partialRectangle;collapsible=0;dropTarget=0;pointerEvents=0;fillColor=none;top=0;left=0;bottom=0;right=0;points=[[0,0.5],[1,0.5]];portConstraint=eastwest;" vertex="1" parent="DO0bj1hmB-chi1vhj7tz-1">
          <mxGeometry y="120" width="190" height="30" as="geometry" />
        </mxCell>
        <mxCell id="DO0bj1hmB-chi1vhj7tz-49" style="shape=partialRectangle;connectable=0;fillColor=none;top=0;left=0;bottom=0;right=0;editable=1;overflow=hidden;" vertex="1" parent="DO0bj1hmB-chi1vhj7tz-48">
          <mxGeometry width="30" height="30" as="geometry" />
        </mxCell>
        <mxCell id="DO0bj1hmB-chi1vhj7tz-50" value="accountType String" style="shape=partialRectangle;connectable=0;fillColor=none;top=0;left=0;bottom=0;right=0;align=left;spacingLeft=6;overflow=hidden;fontStyle=1" vertex="1" parent="DO0bj1hmB-chi1vhj7tz-48">
          <mxGeometry x="30" width="160" height="30" as="geometry" />
        </mxCell>
        <mxCell id="DO0bj1hmB-chi1vhj7tz-45" style="shape=partialRectangle;collapsible=0;dropTarget=0;pointerEvents=0;fillColor=none;top=0;left=0;bottom=0;right=0;points=[[0,0.5],[1,0.5]];portConstraint=eastwest;" vertex="1" parent="DO0bj1hmB-chi1vhj7tz-1">
          <mxGeometry y="150" width="190" height="30" as="geometry" />
        </mxCell>
        <mxCell id="DO0bj1hmB-chi1vhj7tz-46" style="shape=partialRectangle;connectable=0;fillColor=none;top=0;left=0;bottom=0;right=0;editable=1;overflow=hidden;" vertex="1" parent="DO0bj1hmB-chi1vhj7tz-45">
          <mxGeometry width="30" height="30" as="geometry" />
        </mxCell>
        <mxCell id="DO0bj1hmB-chi1vhj7tz-47" value="onBoardingDone Boolean" style="shape=partialRectangle;connectable=0;fillColor=none;top=0;left=0;bottom=0;right=0;align=left;spacingLeft=6;overflow=hidden;fontStyle=1" vertex="1" parent="DO0bj1hmB-chi1vhj7tz-45">
          <mxGeometry x="30" width="160" height="30" as="geometry" />
        </mxCell>
        <mxCell id="DO0bj1hmB-chi1vhj7tz-51" value="Doctor" style="shape=table;startSize=30;container=1;collapsible=1;childLayout=tableLayout;fixedRows=1;rowLines=0;fontStyle=1;align=center;resizeLast=1;" vertex="1" parent="1">
          <mxGeometry x="490" y="-610" width="300" height="860" as="geometry" />
        </mxCell>
        <mxCell id="DO0bj1hmB-chi1vhj7tz-52" value="" style="shape=partialRectangle;collapsible=0;dropTarget=0;pointerEvents=0;fillColor=none;top=0;left=0;bottom=0;right=0;points=[[0,0.5],[1,0.5]];portConstraint=eastwest;" vertex="1" parent="DO0bj1hmB-chi1vhj7tz-51">
          <mxGeometry y="30" width="300" height="30" as="geometry" />
        </mxCell>
        <mxCell id="DO0bj1hmB-chi1vhj7tz-53" value="PK" style="shape=partialRectangle;connectable=0;fillColor=none;top=0;left=0;bottom=0;right=0;fontStyle=1;overflow=hidden;" vertex="1" parent="DO0bj1hmB-chi1vhj7tz-52">
          <mxGeometry width="30" height="30" as="geometry" />
        </mxCell>
        <mxCell id="DO0bj1hmB-chi1vhj7tz-54" value="_id ObjectId" style="shape=partialRectangle;connectable=0;fillColor=none;top=0;left=0;bottom=0;right=0;align=left;spacingLeft=6;fontStyle=1;overflow=hidden;" vertex="1" parent="DO0bj1hmB-chi1vhj7tz-52">
          <mxGeometry x="30" width="270" height="30" as="geometry" />
        </mxCell>
        <mxCell id="DO0bj1hmB-chi1vhj7tz-67" style="shape=partialRectangle;collapsible=0;dropTarget=0;pointerEvents=0;fillColor=none;top=0;left=0;bottom=0;right=0;points=[[0,0.5],[1,0.5]];portConstraint=eastwest;" vertex="1" parent="DO0bj1hmB-chi1vhj7tz-51">
          <mxGeometry y="60" width="300" height="30" as="geometry" />
        </mxCell>
        <mxCell id="DO0bj1hmB-chi1vhj7tz-68" value="FK" style="shape=partialRectangle;connectable=0;fillColor=none;top=0;left=0;bottom=0;right=0;fontStyle=1;overflow=hidden;" vertex="1" parent="DO0bj1hmB-chi1vhj7tz-67">
          <mxGeometry width="30" height="30" as="geometry" />
        </mxCell>
        <mxCell id="DO0bj1hmB-chi1vhj7tz-69" value="user_id ObjectId" style="shape=partialRectangle;connectable=0;fillColor=none;top=0;left=0;bottom=0;right=0;align=left;spacingLeft=6;fontStyle=1;overflow=hidden;" vertex="1" parent="DO0bj1hmB-chi1vhj7tz-67">
          <mxGeometry x="30" width="270" height="30" as="geometry" />
        </mxCell>
        <mxCell id="DO0bj1hmB-chi1vhj7tz-121" style="shape=partialRectangle;collapsible=0;dropTarget=0;pointerEvents=0;fillColor=none;top=0;left=0;bottom=0;right=0;points=[[0,0.5],[1,0.5]];portConstraint=eastwest;" vertex="1" parent="DO0bj1hmB-chi1vhj7tz-51">
          <mxGeometry y="90" width="300" height="30" as="geometry" />
        </mxCell>
        <mxCell id="DO0bj1hmB-chi1vhj7tz-122" value="FK" style="shape=partialRectangle;connectable=0;fillColor=#FF8000;top=0;left=0;bottom=0;right=0;editable=1;overflow=hidden;fontStyle=1" vertex="1" parent="DO0bj1hmB-chi1vhj7tz-121">
          <mxGeometry width="30" height="30" as="geometry" />
        </mxCell>
        <mxCell id="DO0bj1hmB-chi1vhj7tz-123" value="activeWorkspace ObjectId" style="shape=partialRectangle;connectable=0;fillColor=#FF8000;top=0;left=0;bottom=0;right=0;align=left;spacingLeft=6;overflow=hidden;fontStyle=1" vertex="1" parent="DO0bj1hmB-chi1vhj7tz-121">
          <mxGeometry x="30" width="270" height="30" as="geometry" />
        </mxCell>
        <mxCell id="DO0bj1hmB-chi1vhj7tz-124" style="shape=partialRectangle;collapsible=0;dropTarget=0;pointerEvents=0;fillColor=none;top=0;left=0;bottom=0;right=0;points=[[0,0.5],[1,0.5]];portConstraint=eastwest;" vertex="1" parent="DO0bj1hmB-chi1vhj7tz-51">
          <mxGeometry y="120" width="300" height="30" as="geometry" />
        </mxCell>
        <mxCell id="DO0bj1hmB-chi1vhj7tz-125" value="FK" style="shape=partialRectangle;connectable=0;fillColor=#FF8000;top=0;left=0;bottom=0;right=0;editable=1;overflow=hidden;fontStyle=1" vertex="1" parent="DO0bj1hmB-chi1vhj7tz-124">
          <mxGeometry width="30" height="30" as="geometry" />
        </mxCell>
        <mxCell id="DO0bj1hmB-chi1vhj7tz-126" value="myAppointments [ObjectId]" style="shape=partialRectangle;connectable=0;fillColor=#FF8000;top=0;left=0;bottom=0;right=0;align=left;spacingLeft=6;overflow=hidden;fontStyle=1" vertex="1" parent="DO0bj1hmB-chi1vhj7tz-124">
          <mxGeometry x="30" width="270" height="30" as="geometry" />
        </mxCell>
        <mxCell id="DO0bj1hmB-chi1vhj7tz-109" style="shape=partialRectangle;collapsible=0;dropTarget=0;pointerEvents=0;fillColor=none;top=0;left=0;bottom=0;right=0;points=[[0,0.5],[1,0.5]];portConstraint=eastwest;" vertex="1" parent="DO0bj1hmB-chi1vhj7tz-51">
          <mxGeometry y="150" width="300" height="30" as="geometry" />
        </mxCell>
        <mxCell id="DO0bj1hmB-chi1vhj7tz-110" style="shape=partialRectangle;connectable=0;fillColor=none;top=0;left=0;bottom=0;right=0;fontStyle=1;overflow=hidden;" vertex="1" parent="DO0bj1hmB-chi1vhj7tz-109">
          <mxGeometry width="30" height="30" as="geometry" />
        </mxCell>
        <mxCell id="DO0bj1hmB-chi1vhj7tz-111" value="title String" style="shape=partialRectangle;connectable=0;fillColor=none;top=0;left=0;bottom=0;right=0;align=left;spacingLeft=6;fontStyle=1;overflow=hidden;" vertex="1" parent="DO0bj1hmB-chi1vhj7tz-109">
          <mxGeometry x="30" width="270" height="30" as="geometry" />
        </mxCell>
        <mxCell id="DO0bj1hmB-chi1vhj7tz-106" style="shape=partialRectangle;collapsible=0;dropTarget=0;pointerEvents=0;fillColor=none;top=0;left=0;bottom=0;right=0;points=[[0,0.5],[1,0.5]];portConstraint=eastwest;" vertex="1" parent="DO0bj1hmB-chi1vhj7tz-51">
          <mxGeometry y="180" width="300" height="30" as="geometry" />
        </mxCell>
        <mxCell id="DO0bj1hmB-chi1vhj7tz-107" style="shape=partialRectangle;connectable=0;fillColor=none;top=0;left=0;bottom=0;right=0;fontStyle=1;overflow=hidden;" vertex="1" parent="DO0bj1hmB-chi1vhj7tz-106">
          <mxGeometry width="30" height="30" as="geometry" />
        </mxCell>
        <mxCell id="DO0bj1hmB-chi1vhj7tz-108" value="firstName String" style="shape=partialRectangle;connectable=0;fillColor=none;top=0;left=0;bottom=0;right=0;align=left;spacingLeft=6;fontStyle=1;overflow=hidden;" vertex="1" parent="DO0bj1hmB-chi1vhj7tz-106">
          <mxGeometry x="30" width="270" height="30" as="geometry" />
        </mxCell>
        <mxCell id="DO0bj1hmB-chi1vhj7tz-103" style="shape=partialRectangle;collapsible=0;dropTarget=0;pointerEvents=0;fillColor=none;top=0;left=0;bottom=0;right=0;points=[[0,0.5],[1,0.5]];portConstraint=eastwest;" vertex="1" parent="DO0bj1hmB-chi1vhj7tz-51">
          <mxGeometry y="210" width="300" height="30" as="geometry" />
        </mxCell>
        <mxCell id="DO0bj1hmB-chi1vhj7tz-104" style="shape=partialRectangle;connectable=0;fillColor=none;top=0;left=0;bottom=0;right=0;fontStyle=1;overflow=hidden;" vertex="1" parent="DO0bj1hmB-chi1vhj7tz-103">
          <mxGeometry width="30" height="30" as="geometry" />
        </mxCell>
        <mxCell id="DO0bj1hmB-chi1vhj7tz-105" value="middleName String" style="shape=partialRectangle;connectable=0;fillColor=none;top=0;left=0;bottom=0;right=0;align=left;spacingLeft=6;fontStyle=1;overflow=hidden;" vertex="1" parent="DO0bj1hmB-chi1vhj7tz-103">
          <mxGeometry x="30" width="270" height="30" as="geometry" />
        </mxCell>
        <mxCell id="DO0bj1hmB-chi1vhj7tz-100" style="shape=partialRectangle;collapsible=0;dropTarget=0;pointerEvents=0;fillColor=none;top=0;left=0;bottom=0;right=0;points=[[0,0.5],[1,0.5]];portConstraint=eastwest;" vertex="1" parent="DO0bj1hmB-chi1vhj7tz-51">
          <mxGeometry y="240" width="300" height="30" as="geometry" />
        </mxCell>
        <mxCell id="DO0bj1hmB-chi1vhj7tz-101" style="shape=partialRectangle;connectable=0;fillColor=none;top=0;left=0;bottom=0;right=0;fontStyle=1;overflow=hidden;" vertex="1" parent="DO0bj1hmB-chi1vhj7tz-100">
          <mxGeometry width="30" height="30" as="geometry" />
        </mxCell>
        <mxCell id="DO0bj1hmB-chi1vhj7tz-102" value="lastName String" style="shape=partialRectangle;connectable=0;fillColor=none;top=0;left=0;bottom=0;right=0;align=left;spacingLeft=6;fontStyle=1;overflow=hidden;" vertex="1" parent="DO0bj1hmB-chi1vhj7tz-100">
          <mxGeometry x="30" width="270" height="30" as="geometry" />
        </mxCell>
        <mxCell id="DO0bj1hmB-chi1vhj7tz-97" style="shape=partialRectangle;collapsible=0;dropTarget=0;pointerEvents=0;fillColor=none;top=0;left=0;bottom=0;right=0;points=[[0,0.5],[1,0.5]];portConstraint=eastwest;" vertex="1" parent="DO0bj1hmB-chi1vhj7tz-51">
          <mxGeometry y="270" width="300" height="30" as="geometry" />
        </mxCell>
        <mxCell id="DO0bj1hmB-chi1vhj7tz-98" style="shape=partialRectangle;connectable=0;fillColor=none;top=0;left=0;bottom=0;right=0;fontStyle=1;overflow=hidden;" vertex="1" parent="DO0bj1hmB-chi1vhj7tz-97">
          <mxGeometry width="30" height="30" as="geometry" />
        </mxCell>
        <mxCell id="DO0bj1hmB-chi1vhj7tz-99" value="userName String" style="shape=partialRectangle;connectable=0;fillColor=none;top=0;left=0;bottom=0;right=0;align=left;spacingLeft=6;fontStyle=1;overflow=hidden;" vertex="1" parent="DO0bj1hmB-chi1vhj7tz-97">
          <mxGeometry x="30" width="270" height="30" as="geometry" />
        </mxCell>
        <mxCell id="DO0bj1hmB-chi1vhj7tz-94" style="shape=partialRectangle;collapsible=0;dropTarget=0;pointerEvents=0;fillColor=none;top=0;left=0;bottom=0;right=0;points=[[0,0.5],[1,0.5]];portConstraint=eastwest;" vertex="1" parent="DO0bj1hmB-chi1vhj7tz-51">
          <mxGeometry y="300" width="300" height="30" as="geometry" />
        </mxCell>
        <mxCell id="DO0bj1hmB-chi1vhj7tz-95" style="shape=partialRectangle;connectable=0;fillColor=none;top=0;left=0;bottom=0;right=0;fontStyle=1;overflow=hidden;" vertex="1" parent="DO0bj1hmB-chi1vhj7tz-94">
          <mxGeometry width="30" height="30" as="geometry" />
        </mxCell>
        <mxCell id="DO0bj1hmB-chi1vhj7tz-96" value="email String" style="shape=partialRectangle;connectable=0;fillColor=none;top=0;left=0;bottom=0;right=0;align=left;spacingLeft=6;fontStyle=1;overflow=hidden;" vertex="1" parent="DO0bj1hmB-chi1vhj7tz-94">
          <mxGeometry x="30" width="270" height="30" as="geometry" />
        </mxCell>
        <mxCell id="DO0bj1hmB-chi1vhj7tz-91" style="shape=partialRectangle;collapsible=0;dropTarget=0;pointerEvents=0;fillColor=none;top=0;left=0;bottom=0;right=0;points=[[0,0.5],[1,0.5]];portConstraint=eastwest;" vertex="1" parent="DO0bj1hmB-chi1vhj7tz-51">
          <mxGeometry y="330" width="300" height="30" as="geometry" />
        </mxCell>
        <mxCell id="DO0bj1hmB-chi1vhj7tz-92" style="shape=partialRectangle;connectable=0;fillColor=none;top=0;left=0;bottom=0;right=0;fontStyle=1;overflow=hidden;" vertex="1" parent="DO0bj1hmB-chi1vhj7tz-91">
          <mxGeometry width="30" height="30" as="geometry" />
        </mxCell>
        <mxCell id="DO0bj1hmB-chi1vhj7tz-93" value="onBoardingDone Boolean" style="shape=partialRectangle;connectable=0;fillColor=none;top=0;left=0;bottom=0;right=0;align=left;spacingLeft=6;fontStyle=1;overflow=hidden;" vertex="1" parent="DO0bj1hmB-chi1vhj7tz-91">
          <mxGeometry x="30" width="270" height="30" as="geometry" />
        </mxCell>
        <mxCell id="DO0bj1hmB-chi1vhj7tz-88" style="shape=partialRectangle;collapsible=0;dropTarget=0;pointerEvents=0;fillColor=none;top=0;left=0;bottom=0;right=0;points=[[0,0.5],[1,0.5]];portConstraint=eastwest;" vertex="1" parent="DO0bj1hmB-chi1vhj7tz-51">
          <mxGeometry y="360" width="300" height="30" as="geometry" />
        </mxCell>
        <mxCell id="DO0bj1hmB-chi1vhj7tz-89" style="shape=partialRectangle;connectable=0;fillColor=none;top=0;left=0;bottom=0;right=0;fontStyle=1;overflow=hidden;" vertex="1" parent="DO0bj1hmB-chi1vhj7tz-88">
          <mxGeometry width="30" height="30" as="geometry" />
        </mxCell>
        <mxCell id="DO0bj1hmB-chi1vhj7tz-90" value="phonePrimary String" style="shape=partialRectangle;connectable=0;fillColor=none;top=0;left=0;bottom=0;right=0;align=left;spacingLeft=6;fontStyle=1;overflow=hidden;" vertex="1" parent="DO0bj1hmB-chi1vhj7tz-88">
          <mxGeometry x="30" width="270" height="30" as="geometry" />
        </mxCell>
        <mxCell id="DO0bj1hmB-chi1vhj7tz-249" style="shape=partialRectangle;collapsible=0;dropTarget=0;pointerEvents=0;fillColor=none;top=0;left=0;bottom=0;right=0;points=[[0,0.5],[1,0.5]];portConstraint=eastwest;" vertex="1" parent="DO0bj1hmB-chi1vhj7tz-51">
          <mxGeometry y="390" width="300" height="30" as="geometry" />
        </mxCell>
        <mxCell id="DO0bj1hmB-chi1vhj7tz-250" style="shape=partialRectangle;connectable=0;fillColor=none;top=0;left=0;bottom=0;right=0;fontStyle=1;overflow=hidden;" vertex="1" parent="DO0bj1hmB-chi1vhj7tz-249">
          <mxGeometry width="30" height="30" as="geometry" />
        </mxCell>
        <mxCell id="DO0bj1hmB-chi1vhj7tz-251" value="phonePrimary String" style="shape=partialRectangle;connectable=0;fillColor=none;top=0;left=0;bottom=0;right=0;align=left;spacingLeft=6;fontStyle=1;overflow=hidden;" vertex="1" parent="DO0bj1hmB-chi1vhj7tz-249">
          <mxGeometry x="30" width="270" height="30" as="geometry" />
        </mxCell>
        <mxCell id="DO0bj1hmB-chi1vhj7tz-85" style="shape=partialRectangle;collapsible=0;dropTarget=0;pointerEvents=0;fillColor=none;top=0;left=0;bottom=0;right=0;points=[[0,0.5],[1,0.5]];portConstraint=eastwest;" vertex="1" parent="DO0bj1hmB-chi1vhj7tz-51">
          <mxGeometry y="420" width="300" height="30" as="geometry" />
        </mxCell>
        <mxCell id="DO0bj1hmB-chi1vhj7tz-86" style="shape=partialRectangle;connectable=0;fillColor=none;top=0;left=0;bottom=0;right=0;fontStyle=1;overflow=hidden;" vertex="1" parent="DO0bj1hmB-chi1vhj7tz-85">
          <mxGeometry width="30" height="30" as="geometry" />
        </mxCell>
        <mxCell id="DO0bj1hmB-chi1vhj7tz-87" value="phonePrimaryEx String" style="shape=partialRectangle;connectable=0;fillColor=none;top=0;left=0;bottom=0;right=0;align=left;spacingLeft=6;fontStyle=1;overflow=hidden;" vertex="1" parent="DO0bj1hmB-chi1vhj7tz-85">
          <mxGeometry x="30" width="270" height="30" as="geometry" />
        </mxCell>
        <mxCell id="DO0bj1hmB-chi1vhj7tz-82" style="shape=partialRectangle;collapsible=0;dropTarget=0;pointerEvents=0;fillColor=none;top=0;left=0;bottom=0;right=0;points=[[0,0.5],[1,0.5]];portConstraint=eastwest;" vertex="1" parent="DO0bj1hmB-chi1vhj7tz-51">
          <mxGeometry y="450" width="300" height="30" as="geometry" />
        </mxCell>
        <mxCell id="DO0bj1hmB-chi1vhj7tz-83" style="shape=partialRectangle;connectable=0;fillColor=none;top=0;left=0;bottom=0;right=0;fontStyle=1;overflow=hidden;" vertex="1" parent="DO0bj1hmB-chi1vhj7tz-82">
          <mxGeometry width="30" height="30" as="geometry" />
        </mxCell>
        <mxCell id="DO0bj1hmB-chi1vhj7tz-84" value="address String" style="shape=partialRectangle;connectable=0;fillColor=none;top=0;left=0;bottom=0;right=0;align=left;spacingLeft=6;fontStyle=1;overflow=hidden;" vertex="1" parent="DO0bj1hmB-chi1vhj7tz-82">
          <mxGeometry x="30" width="270" height="30" as="geometry" />
        </mxCell>
        <mxCell id="DO0bj1hmB-chi1vhj7tz-79" style="shape=partialRectangle;collapsible=0;dropTarget=0;pointerEvents=0;fillColor=none;top=0;left=0;bottom=0;right=0;points=[[0,0.5],[1,0.5]];portConstraint=eastwest;" vertex="1" parent="DO0bj1hmB-chi1vhj7tz-51">
          <mxGeometry y="480" width="300" height="30" as="geometry" />
        </mxCell>
        <mxCell id="DO0bj1hmB-chi1vhj7tz-80" style="shape=partialRectangle;connectable=0;fillColor=none;top=0;left=0;bottom=0;right=0;fontStyle=1;overflow=hidden;" vertex="1" parent="DO0bj1hmB-chi1vhj7tz-79">
          <mxGeometry width="30" height="30" as="geometry" />
        </mxCell>
        <mxCell id="DO0bj1hmB-chi1vhj7tz-81" value="state String" style="shape=partialRectangle;connectable=0;fillColor=none;top=0;left=0;bottom=0;right=0;align=left;spacingLeft=6;fontStyle=1;overflow=hidden;" vertex="1" parent="DO0bj1hmB-chi1vhj7tz-79">
          <mxGeometry x="30" width="270" height="30" as="geometry" />
        </mxCell>
        <mxCell id="DO0bj1hmB-chi1vhj7tz-76" style="shape=partialRectangle;collapsible=0;dropTarget=0;pointerEvents=0;fillColor=none;top=0;left=0;bottom=0;right=0;points=[[0,0.5],[1,0.5]];portConstraint=eastwest;" vertex="1" parent="DO0bj1hmB-chi1vhj7tz-51">
          <mxGeometry y="510" width="300" height="30" as="geometry" />
        </mxCell>
        <mxCell id="DO0bj1hmB-chi1vhj7tz-77" style="shape=partialRectangle;connectable=0;fillColor=none;top=0;left=0;bottom=0;right=0;fontStyle=1;overflow=hidden;" vertex="1" parent="DO0bj1hmB-chi1vhj7tz-76">
          <mxGeometry width="30" height="30" as="geometry" />
        </mxCell>
        <mxCell id="DO0bj1hmB-chi1vhj7tz-78" value="pincode String" style="shape=partialRectangle;connectable=0;fillColor=none;top=0;left=0;bottom=0;right=0;align=left;spacingLeft=6;fontStyle=1;overflow=hidden;" vertex="1" parent="DO0bj1hmB-chi1vhj7tz-76">
          <mxGeometry x="30" width="270" height="30" as="geometry" />
        </mxCell>
        <mxCell id="DO0bj1hmB-chi1vhj7tz-73" style="shape=partialRectangle;collapsible=0;dropTarget=0;pointerEvents=0;fillColor=none;top=0;left=0;bottom=0;right=0;points=[[0,0.5],[1,0.5]];portConstraint=eastwest;" vertex="1" parent="DO0bj1hmB-chi1vhj7tz-51">
          <mxGeometry y="540" width="300" height="40" as="geometry" />
        </mxCell>
        <mxCell id="DO0bj1hmB-chi1vhj7tz-74" style="shape=partialRectangle;connectable=0;fillColor=none;top=0;left=0;bottom=0;right=0;fontStyle=1;overflow=hidden;" vertex="1" parent="DO0bj1hmB-chi1vhj7tz-73">
          <mxGeometry width="30" height="40" as="geometry" />
        </mxCell>
        <mxCell id="DO0bj1hmB-chi1vhj7tz-75" value="panNo String" style="shape=partialRectangle;connectable=0;fillColor=none;top=0;left=0;bottom=0;right=0;align=left;spacingLeft=6;fontStyle=1;overflow=hidden;" vertex="1" parent="DO0bj1hmB-chi1vhj7tz-73">
          <mxGeometry x="30" width="270" height="40" as="geometry" />
        </mxCell>
        <mxCell id="DO0bj1hmB-chi1vhj7tz-70" style="shape=partialRectangle;collapsible=0;dropTarget=0;pointerEvents=0;fillColor=none;top=0;left=0;bottom=0;right=0;points=[[0,0.5],[1,0.5]];portConstraint=eastwest;" vertex="1" parent="DO0bj1hmB-chi1vhj7tz-51">
          <mxGeometry y="580" width="300" height="30" as="geometry" />
        </mxCell>
        <mxCell id="DO0bj1hmB-chi1vhj7tz-71" style="shape=partialRectangle;connectable=0;fillColor=none;top=0;left=0;bottom=0;right=0;fontStyle=1;overflow=hidden;" vertex="1" parent="DO0bj1hmB-chi1vhj7tz-70">
          <mxGeometry width="30" height="30" as="geometry" />
        </mxCell>
        <mxCell id="DO0bj1hmB-chi1vhj7tz-72" value="licenseNo String" style="shape=partialRectangle;connectable=0;fillColor=none;top=0;left=0;bottom=0;right=0;align=left;spacingLeft=6;fontStyle=1;overflow=hidden;" vertex="1" parent="DO0bj1hmB-chi1vhj7tz-70">
          <mxGeometry x="30" width="270" height="30" as="geometry" />
        </mxCell>
        <mxCell id="DO0bj1hmB-chi1vhj7tz-55" value="" style="shape=partialRectangle;collapsible=0;dropTarget=0;pointerEvents=0;fillColor=none;top=0;left=0;bottom=0;right=0;points=[[0,0.5],[1,0.5]];portConstraint=eastwest;" vertex="1" parent="DO0bj1hmB-chi1vhj7tz-51">
          <mxGeometry y="610" width="300" height="30" as="geometry" />
        </mxCell>
        <mxCell id="DO0bj1hmB-chi1vhj7tz-56" value="" style="shape=partialRectangle;connectable=0;fillColor=none;top=0;left=0;bottom=0;right=0;editable=1;overflow=hidden;" vertex="1" parent="DO0bj1hmB-chi1vhj7tz-55">
          <mxGeometry width="30" height="30" as="geometry" />
        </mxCell>
        <mxCell id="DO0bj1hmB-chi1vhj7tz-57" value="licenseState String" style="shape=partialRectangle;connectable=0;fillColor=none;top=0;left=0;bottom=0;right=0;align=left;spacingLeft=6;overflow=hidden;fontStyle=1" vertex="1" parent="DO0bj1hmB-chi1vhj7tz-55">
          <mxGeometry x="30" width="270" height="30" as="geometry" />
        </mxCell>
        <mxCell id="DO0bj1hmB-chi1vhj7tz-58" style="shape=partialRectangle;collapsible=0;dropTarget=0;pointerEvents=0;fillColor=none;top=0;left=0;bottom=0;right=0;points=[[0,0.5],[1,0.5]];portConstraint=eastwest;" vertex="1" parent="DO0bj1hmB-chi1vhj7tz-51">
          <mxGeometry y="640" width="300" height="30" as="geometry" />
        </mxCell>
        <mxCell id="DO0bj1hmB-chi1vhj7tz-59" style="shape=partialRectangle;connectable=0;fillColor=none;top=0;left=0;bottom=0;right=0;editable=1;overflow=hidden;" vertex="1" parent="DO0bj1hmB-chi1vhj7tz-58">
          <mxGeometry width="30" height="30" as="geometry" />
        </mxCell>
        <mxCell id="DO0bj1hmB-chi1vhj7tz-60" value="practiceType String" style="shape=partialRectangle;connectable=0;fillColor=none;top=0;left=0;bottom=0;right=0;align=left;spacingLeft=6;overflow=hidden;fontStyle=1" vertex="1" parent="DO0bj1hmB-chi1vhj7tz-58">
          <mxGeometry x="30" width="270" height="30" as="geometry" />
        </mxCell>
        <mxCell id="DO0bj1hmB-chi1vhj7tz-61" style="shape=partialRectangle;collapsible=0;dropTarget=0;pointerEvents=0;fillColor=none;top=0;left=0;bottom=0;right=0;points=[[0,0.5],[1,0.5]];portConstraint=eastwest;" vertex="1" parent="DO0bj1hmB-chi1vhj7tz-51">
          <mxGeometry y="670" width="300" height="30" as="geometry" />
        </mxCell>
        <mxCell id="DO0bj1hmB-chi1vhj7tz-62" style="shape=partialRectangle;connectable=0;fillColor=none;top=0;left=0;bottom=0;right=0;editable=1;overflow=hidden;" vertex="1" parent="DO0bj1hmB-chi1vhj7tz-61">
          <mxGeometry width="30" height="30" as="geometry" />
        </mxCell>
        <mxCell id="DO0bj1hmB-chi1vhj7tz-63" value="consultingFee Number" style="shape=partialRectangle;connectable=0;fillColor=none;top=0;left=0;bottom=0;right=0;align=left;spacingLeft=6;overflow=hidden;fontStyle=1" vertex="1" parent="DO0bj1hmB-chi1vhj7tz-61">
          <mxGeometry x="30" width="270" height="30" as="geometry" />
        </mxCell>
        <mxCell id="DO0bj1hmB-chi1vhj7tz-64" style="shape=partialRectangle;collapsible=0;dropTarget=0;pointerEvents=0;fillColor=none;top=0;left=0;bottom=0;right=0;points=[[0,0.5],[1,0.5]];portConstraint=eastwest;" vertex="1" parent="DO0bj1hmB-chi1vhj7tz-51">
          <mxGeometry y="700" width="300" height="30" as="geometry" />
        </mxCell>
        <mxCell id="DO0bj1hmB-chi1vhj7tz-65" style="shape=partialRectangle;connectable=0;fillColor=none;top=0;left=0;bottom=0;right=0;editable=1;overflow=hidden;" vertex="1" parent="DO0bj1hmB-chi1vhj7tz-64">
          <mxGeometry width="30" height="30" as="geometry" />
        </mxCell>
        <mxCell id="DO0bj1hmB-chi1vhj7tz-66" value="signatureImageURL String" style="shape=partialRectangle;connectable=0;fillColor=none;top=0;left=0;bottom=0;right=0;align=left;spacingLeft=6;overflow=hidden;fontStyle=1" vertex="1" parent="DO0bj1hmB-chi1vhj7tz-64">
          <mxGeometry x="30" width="270" height="30" as="geometry" />
        </mxCell>
        <mxCell id="DO0bj1hmB-chi1vhj7tz-118" style="shape=partialRectangle;collapsible=0;dropTarget=0;pointerEvents=0;fillColor=none;top=0;left=0;bottom=0;right=0;points=[[0,0.5],[1,0.5]];portConstraint=eastwest;" vertex="1" parent="DO0bj1hmB-chi1vhj7tz-51">
          <mxGeometry y="730" width="300" height="30" as="geometry" />
        </mxCell>
        <mxCell id="DO0bj1hmB-chi1vhj7tz-119" style="shape=partialRectangle;connectable=0;fillColor=none;top=0;left=0;bottom=0;right=0;editable=1;overflow=hidden;" vertex="1" parent="DO0bj1hmB-chi1vhj7tz-118">
          <mxGeometry width="30" height="30" as="geometry" />
        </mxCell>
        <mxCell id="DO0bj1hmB-chi1vhj7tz-120" value="signatureImageKey String" style="shape=partialRectangle;connectable=0;fillColor=none;top=0;left=0;bottom=0;right=0;align=left;spacingLeft=6;overflow=hidden;fontStyle=1" vertex="1" parent="DO0bj1hmB-chi1vhj7tz-118">
          <mxGeometry x="30" width="270" height="30" as="geometry" />
        </mxCell>
        <mxCell id="DO0bj1hmB-chi1vhj7tz-115" style="shape=partialRectangle;collapsible=0;dropTarget=0;pointerEvents=0;fillColor=none;top=0;left=0;bottom=0;right=0;points=[[0,0.5],[1,0.5]];portConstraint=eastwest;" vertex="1" parent="DO0bj1hmB-chi1vhj7tz-51">
          <mxGeometry y="760" width="300" height="30" as="geometry" />
        </mxCell>
        <mxCell id="DO0bj1hmB-chi1vhj7tz-116" style="shape=partialRectangle;connectable=0;fillColor=none;top=0;left=0;bottom=0;right=0;editable=1;overflow=hidden;" vertex="1" parent="DO0bj1hmB-chi1vhj7tz-115">
          <mxGeometry width="30" height="30" as="geometry" />
        </mxCell>
        <mxCell id="DO0bj1hmB-chi1vhj7tz-117" value="Qualifications String Array" style="shape=partialRectangle;connectable=0;fillColor=none;top=0;left=0;bottom=0;right=0;align=left;spacingLeft=6;overflow=hidden;fontStyle=1" vertex="1" parent="DO0bj1hmB-chi1vhj7tz-115">
          <mxGeometry x="30" width="270" height="30" as="geometry" />
        </mxCell>
        <mxCell id="DO0bj1hmB-chi1vhj7tz-112" style="shape=partialRectangle;collapsible=0;dropTarget=0;pointerEvents=0;fillColor=none;top=0;left=0;bottom=0;right=0;points=[[0,0.5],[1,0.5]];portConstraint=eastwest;" vertex="1" parent="DO0bj1hmB-chi1vhj7tz-51">
          <mxGeometry y="790" width="300" height="30" as="geometry" />
        </mxCell>
        <mxCell id="DO0bj1hmB-chi1vhj7tz-113" style="shape=partialRectangle;connectable=0;fillColor=none;top=0;left=0;bottom=0;right=0;editable=1;overflow=hidden;" vertex="1" parent="DO0bj1hmB-chi1vhj7tz-112">
          <mxGeometry width="30" height="30" as="geometry" />
        </mxCell>
        <mxCell id="DO0bj1hmB-chi1vhj7tz-114" value="subscribedFeatures String Array" style="shape=partialRectangle;connectable=0;fillColor=none;top=0;left=0;bottom=0;right=0;align=left;spacingLeft=6;overflow=hidden;fontStyle=1" vertex="1" parent="DO0bj1hmB-chi1vhj7tz-112">
          <mxGeometry x="30" width="270" height="30" as="geometry" />
        </mxCell>
        <mxCell id="DO0bj1hmB-chi1vhj7tz-127" style="shape=partialRectangle;collapsible=0;dropTarget=0;pointerEvents=0;fillColor=#FF8000;top=0;left=0;bottom=0;right=0;points=[[0,0.5],[1,0.5]];portConstraint=eastwest;" vertex="1" parent="DO0bj1hmB-chi1vhj7tz-51">
          <mxGeometry y="820" width="300" height="30" as="geometry" />
        </mxCell>
        <mxCell id="DO0bj1hmB-chi1vhj7tz-128" style="shape=partialRectangle;connectable=0;fillColor=none;top=0;left=0;bottom=0;right=0;editable=1;overflow=hidden;" vertex="1" parent="DO0bj1hmB-chi1vhj7tz-127">
          <mxGeometry width="30" height="30" as="geometry" />
        </mxCell>
        <mxCell id="DO0bj1hmB-chi1vhj7tz-129" value="workspaces:[{workspaceId, role, status}]" style="shape=partialRectangle;connectable=0;fillColor=none;top=0;left=0;bottom=0;right=0;align=left;spacingLeft=6;overflow=hidden;fontStyle=1" vertex="1" parent="DO0bj1hmB-chi1vhj7tz-127">
          <mxGeometry x="30" width="270" height="30" as="geometry" />
        </mxCell>
        <mxCell id="DO0bj1hmB-chi1vhj7tz-131" value="Workspace" style="shape=table;startSize=30;container=1;collapsible=1;childLayout=tableLayout;fixedRows=1;rowLines=0;fontStyle=1;align=center;resizeLast=1;fillColor=#FF8000;" vertex="1" parent="1">
          <mxGeometry x="65" y="-550" width="240" height="490" as="geometry" />
        </mxCell>
        <mxCell id="DO0bj1hmB-chi1vhj7tz-132" value="" style="shape=partialRectangle;collapsible=0;dropTarget=0;pointerEvents=0;fillColor=none;top=0;left=0;bottom=0;right=0;points=[[0,0.5],[1,0.5]];portConstraint=eastwest;" vertex="1" parent="DO0bj1hmB-chi1vhj7tz-131">
          <mxGeometry y="30" width="240" height="30" as="geometry" />
        </mxCell>
        <mxCell id="DO0bj1hmB-chi1vhj7tz-133" value="PK" style="shape=partialRectangle;connectable=0;fillColor=#FF8000;top=0;left=0;bottom=0;right=0;fontStyle=1;overflow=hidden;" vertex="1" parent="DO0bj1hmB-chi1vhj7tz-132">
          <mxGeometry width="30" height="30" as="geometry" />
        </mxCell>
        <mxCell id="DO0bj1hmB-chi1vhj7tz-134" value="_id ObjectId" style="shape=partialRectangle;connectable=0;fillColor=#FF8000;top=0;left=0;bottom=0;right=0;align=left;spacingLeft=6;fontStyle=1;overflow=hidden;" vertex="1" parent="DO0bj1hmB-chi1vhj7tz-132">
          <mxGeometry x="30" width="210" height="30" as="geometry" />
        </mxCell>
        <mxCell id="DO0bj1hmB-chi1vhj7tz-168" style="shape=partialRectangle;collapsible=0;dropTarget=0;pointerEvents=0;fillColor=none;top=0;left=0;bottom=0;right=0;points=[[0,0.5],[1,0.5]];portConstraint=eastwest;" vertex="1" parent="DO0bj1hmB-chi1vhj7tz-131">
          <mxGeometry y="60" width="240" height="30" as="geometry" />
        </mxCell>
        <mxCell id="DO0bj1hmB-chi1vhj7tz-169" value="FK" style="shape=partialRectangle;connectable=0;fillColor=#FF8000;top=0;left=0;bottom=0;right=0;editable=1;overflow=hidden;fontStyle=1" vertex="1" parent="DO0bj1hmB-chi1vhj7tz-168">
          <mxGeometry width="30" height="30" as="geometry" />
        </mxCell>
        <mxCell id="DO0bj1hmB-chi1vhj7tz-170" value="invitedUsers ObjectId" style="shape=partialRectangle;connectable=0;fillColor=#FF8000;top=0;left=0;bottom=0;right=0;align=left;spacingLeft=6;overflow=hidden;fontStyle=1" vertex="1" parent="DO0bj1hmB-chi1vhj7tz-168">
          <mxGeometry x="30" width="210" height="30" as="geometry" />
        </mxCell>
        <mxCell id="DO0bj1hmB-chi1vhj7tz-165" style="shape=partialRectangle;collapsible=0;dropTarget=0;pointerEvents=0;fillColor=#FF8000;top=0;left=0;bottom=0;right=0;points=[[0,0.5],[1,0.5]];portConstraint=eastwest;" vertex="1" parent="DO0bj1hmB-chi1vhj7tz-131">
          <mxGeometry y="90" width="240" height="30" as="geometry" />
        </mxCell>
        <mxCell id="DO0bj1hmB-chi1vhj7tz-166" value="FK" style="shape=partialRectangle;connectable=0;fillColor=none;top=0;left=0;bottom=0;right=0;editable=1;overflow=hidden;fontStyle=1" vertex="1" parent="DO0bj1hmB-chi1vhj7tz-165">
          <mxGeometry width="30" height="30" as="geometry" />
        </mxCell>
        <mxCell id="DO0bj1hmB-chi1vhj7tz-167" value="queue: [ObjectId]" style="shape=partialRectangle;connectable=0;fillColor=none;top=0;left=0;bottom=0;right=0;align=left;spacingLeft=6;overflow=hidden;fontStyle=1" vertex="1" parent="DO0bj1hmB-chi1vhj7tz-165">
          <mxGeometry x="30" width="210" height="30" as="geometry" />
        </mxCell>
        <mxCell id="DO0bj1hmB-chi1vhj7tz-135" value="" style="shape=partialRectangle;collapsible=0;dropTarget=0;pointerEvents=0;fillColor=none;top=0;left=0;bottom=0;right=0;points=[[0,0.5],[1,0.5]];portConstraint=eastwest;" vertex="1" parent="DO0bj1hmB-chi1vhj7tz-131">
          <mxGeometry y="120" width="240" height="30" as="geometry" />
        </mxCell>
        <mxCell id="DO0bj1hmB-chi1vhj7tz-136" value="" style="shape=partialRectangle;connectable=0;fillColor=#FF8000;top=0;left=0;bottom=0;right=0;editable=1;overflow=hidden;" vertex="1" parent="DO0bj1hmB-chi1vhj7tz-135">
          <mxGeometry width="30" height="30" as="geometry" />
        </mxCell>
        <mxCell id="DO0bj1hmB-chi1vhj7tz-137" value="name String" style="shape=partialRectangle;connectable=0;fillColor=#FF8000;top=0;left=0;bottom=0;right=0;align=left;spacingLeft=6;overflow=hidden;fontStyle=1" vertex="1" parent="DO0bj1hmB-chi1vhj7tz-135">
          <mxGeometry x="30" width="210" height="30" as="geometry" />
        </mxCell>
        <mxCell id="DO0bj1hmB-chi1vhj7tz-138" style="shape=partialRectangle;collapsible=0;dropTarget=0;pointerEvents=0;fillColor=none;top=0;left=0;bottom=0;right=0;points=[[0,0.5],[1,0.5]];portConstraint=eastwest;" vertex="1" parent="DO0bj1hmB-chi1vhj7tz-131">
          <mxGeometry y="150" width="240" height="30" as="geometry" />
        </mxCell>
        <mxCell id="DO0bj1hmB-chi1vhj7tz-139" style="shape=partialRectangle;connectable=0;fillColor=#FF8000;top=0;left=0;bottom=0;right=0;editable=1;overflow=hidden;" vertex="1" parent="DO0bj1hmB-chi1vhj7tz-138">
          <mxGeometry width="30" height="30" as="geometry" />
        </mxCell>
        <mxCell id="DO0bj1hmB-chi1vhj7tz-140" value="accountType String" style="shape=partialRectangle;connectable=0;fillColor=#FF8000;top=0;left=0;bottom=0;right=0;align=left;spacingLeft=6;overflow=hidden;fontStyle=1" vertex="1" parent="DO0bj1hmB-chi1vhj7tz-138">
          <mxGeometry x="30" width="210" height="30" as="geometry" />
        </mxCell>
        <mxCell id="DO0bj1hmB-chi1vhj7tz-141" style="shape=partialRectangle;collapsible=0;dropTarget=0;pointerEvents=0;fillColor=#FF8000;top=0;left=0;bottom=0;right=0;points=[[0,0.5],[1,0.5]];portConstraint=eastwest;" vertex="1" parent="DO0bj1hmB-chi1vhj7tz-131">
          <mxGeometry y="180" width="240" height="30" as="geometry" />
        </mxCell>
        <mxCell id="DO0bj1hmB-chi1vhj7tz-142" style="shape=partialRectangle;connectable=0;fillColor=none;top=0;left=0;bottom=0;right=0;editable=1;overflow=hidden;" vertex="1" parent="DO0bj1hmB-chi1vhj7tz-141">
          <mxGeometry width="30" height="30" as="geometry" />
        </mxCell>
        <mxCell id="DO0bj1hmB-chi1vhj7tz-143" value="accountType String" style="shape=partialRectangle;connectable=0;fillColor=none;top=0;left=0;bottom=0;right=0;align=left;spacingLeft=6;overflow=hidden;fontStyle=1" vertex="1" parent="DO0bj1hmB-chi1vhj7tz-141">
          <mxGeometry x="30" width="210" height="30" as="geometry" />
        </mxCell>
        <mxCell id="DO0bj1hmB-chi1vhj7tz-144" style="shape=partialRectangle;collapsible=0;dropTarget=0;pointerEvents=0;fillColor=#FF8000;top=0;left=0;bottom=0;right=0;points=[[0,0.5],[1,0.5]];portConstraint=eastwest;" vertex="1" parent="DO0bj1hmB-chi1vhj7tz-131">
          <mxGeometry y="210" width="240" height="30" as="geometry" />
        </mxCell>
        <mxCell id="DO0bj1hmB-chi1vhj7tz-145" style="shape=partialRectangle;connectable=0;fillColor=none;top=0;left=0;bottom=0;right=0;editable=1;overflow=hidden;" vertex="1" parent="DO0bj1hmB-chi1vhj7tz-144">
          <mxGeometry width="30" height="30" as="geometry" />
        </mxCell>
        <mxCell id="DO0bj1hmB-chi1vhj7tz-146" value="onBoardingDone Boolean" style="shape=partialRectangle;connectable=0;fillColor=none;top=0;left=0;bottom=0;right=0;align=left;spacingLeft=6;overflow=hidden;fontStyle=1" vertex="1" parent="DO0bj1hmB-chi1vhj7tz-144">
          <mxGeometry x="30" width="210" height="30" as="geometry" />
        </mxCell>
        <mxCell id="DO0bj1hmB-chi1vhj7tz-147" style="shape=partialRectangle;collapsible=0;dropTarget=0;pointerEvents=0;fillColor=#FF8000;top=0;left=0;bottom=0;right=0;points=[[0,0.5],[1,0.5]];portConstraint=eastwest;" vertex="1" parent="DO0bj1hmB-chi1vhj7tz-131">
          <mxGeometry y="240" width="240" height="30" as="geometry" />
        </mxCell>
        <mxCell id="DO0bj1hmB-chi1vhj7tz-148" style="shape=partialRectangle;connectable=0;fillColor=none;top=0;left=0;bottom=0;right=0;editable=1;overflow=hidden;" vertex="1" parent="DO0bj1hmB-chi1vhj7tz-147">
          <mxGeometry width="30" height="30" as="geometry" />
        </mxCell>
        <mxCell id="DO0bj1hmB-chi1vhj7tz-149" value="contact String" style="shape=partialRectangle;connectable=0;fillColor=none;top=0;left=0;bottom=0;right=0;align=left;spacingLeft=6;overflow=hidden;fontStyle=1" vertex="1" parent="DO0bj1hmB-chi1vhj7tz-147">
          <mxGeometry x="30" width="210" height="30" as="geometry" />
        </mxCell>
        <mxCell id="DO0bj1hmB-chi1vhj7tz-162" style="shape=partialRectangle;collapsible=0;dropTarget=0;pointerEvents=0;fillColor=#FF8000;top=0;left=0;bottom=0;right=0;points=[[0,0.5],[1,0.5]];portConstraint=eastwest;" vertex="1" parent="DO0bj1hmB-chi1vhj7tz-131">
          <mxGeometry y="270" width="240" height="30" as="geometry" />
        </mxCell>
        <mxCell id="DO0bj1hmB-chi1vhj7tz-163" style="shape=partialRectangle;connectable=0;fillColor=none;top=0;left=0;bottom=0;right=0;editable=1;overflow=hidden;" vertex="1" parent="DO0bj1hmB-chi1vhj7tz-162">
          <mxGeometry width="30" height="30" as="geometry" />
        </mxCell>
        <mxCell id="DO0bj1hmB-chi1vhj7tz-164" value="countryCode String" style="shape=partialRectangle;connectable=0;fillColor=#FF8000;top=0;left=0;bottom=0;right=0;align=left;spacingLeft=6;overflow=hidden;fontStyle=1" vertex="1" parent="DO0bj1hmB-chi1vhj7tz-162">
          <mxGeometry x="30" width="210" height="30" as="geometry" />
        </mxCell>
        <mxCell id="DO0bj1hmB-chi1vhj7tz-159" style="shape=partialRectangle;collapsible=0;dropTarget=0;pointerEvents=0;fillColor=#FF8000;top=0;left=0;bottom=0;right=0;points=[[0,0.5],[1,0.5]];portConstraint=eastwest;" vertex="1" parent="DO0bj1hmB-chi1vhj7tz-131">
          <mxGeometry y="300" width="240" height="30" as="geometry" />
        </mxCell>
        <mxCell id="DO0bj1hmB-chi1vhj7tz-160" style="shape=partialRectangle;connectable=0;fillColor=none;top=0;left=0;bottom=0;right=0;editable=1;overflow=hidden;" vertex="1" parent="DO0bj1hmB-chi1vhj7tz-159">
          <mxGeometry width="30" height="30" as="geometry" />
        </mxCell>
        <mxCell id="DO0bj1hmB-chi1vhj7tz-161" value="address String" style="shape=partialRectangle;connectable=0;fillColor=#FF8000;top=0;left=0;bottom=0;right=0;align=left;spacingLeft=6;overflow=hidden;fontStyle=1" vertex="1" parent="DO0bj1hmB-chi1vhj7tz-159">
          <mxGeometry x="30" width="210" height="30" as="geometry" />
        </mxCell>
        <mxCell id="DO0bj1hmB-chi1vhj7tz-156" style="shape=partialRectangle;collapsible=0;dropTarget=0;pointerEvents=0;fillColor=#FF8000;top=0;left=0;bottom=0;right=0;points=[[0,0.5],[1,0.5]];portConstraint=eastwest;" vertex="1" parent="DO0bj1hmB-chi1vhj7tz-131">
          <mxGeometry y="330" width="240" height="30" as="geometry" />
        </mxCell>
        <mxCell id="DO0bj1hmB-chi1vhj7tz-157" style="shape=partialRectangle;connectable=0;fillColor=none;top=0;left=0;bottom=0;right=0;editable=1;overflow=hidden;" vertex="1" parent="DO0bj1hmB-chi1vhj7tz-156">
          <mxGeometry width="30" height="30" as="geometry" />
        </mxCell>
        <mxCell id="DO0bj1hmB-chi1vhj7tz-158" value="state String" style="shape=partialRectangle;connectable=0;fillColor=#FF8000;top=0;left=0;bottom=0;right=0;align=left;spacingLeft=6;overflow=hidden;fontStyle=1" vertex="1" parent="DO0bj1hmB-chi1vhj7tz-156">
          <mxGeometry x="30" width="210" height="30" as="geometry" />
        </mxCell>
        <mxCell id="DO0bj1hmB-chi1vhj7tz-153" style="shape=partialRectangle;collapsible=0;dropTarget=0;pointerEvents=0;fillColor=#FF8000;top=0;left=0;bottom=0;right=0;points=[[0,0.5],[1,0.5]];portConstraint=eastwest;" vertex="1" parent="DO0bj1hmB-chi1vhj7tz-131">
          <mxGeometry y="360" width="240" height="30" as="geometry" />
        </mxCell>
        <mxCell id="DO0bj1hmB-chi1vhj7tz-154" style="shape=partialRectangle;connectable=0;fillColor=none;top=0;left=0;bottom=0;right=0;editable=1;overflow=hidden;" vertex="1" parent="DO0bj1hmB-chi1vhj7tz-153">
          <mxGeometry width="30" height="30" as="geometry" />
        </mxCell>
        <mxCell id="DO0bj1hmB-chi1vhj7tz-155" value="pincode String" style="shape=partialRectangle;connectable=0;fillColor=none;top=0;left=0;bottom=0;right=0;align=left;spacingLeft=6;overflow=hidden;fontStyle=1" vertex="1" parent="DO0bj1hmB-chi1vhj7tz-153">
          <mxGeometry x="30" width="210" height="30" as="geometry" />
        </mxCell>
        <mxCell id="DO0bj1hmB-chi1vhj7tz-150" style="shape=partialRectangle;collapsible=0;dropTarget=0;pointerEvents=0;fillColor=#FF8000;top=0;left=0;bottom=0;right=0;points=[[0,0.5],[1,0.5]];portConstraint=eastwest;" vertex="1" parent="DO0bj1hmB-chi1vhj7tz-131">
          <mxGeometry y="390" width="240" height="30" as="geometry" />
        </mxCell>
        <mxCell id="DO0bj1hmB-chi1vhj7tz-151" style="shape=partialRectangle;connectable=0;fillColor=none;top=0;left=0;bottom=0;right=0;editable=1;overflow=hidden;" vertex="1" parent="DO0bj1hmB-chi1vhj7tz-150">
          <mxGeometry width="30" height="30" as="geometry" />
        </mxCell>
        <mxCell id="DO0bj1hmB-chi1vhj7tz-152" value="gstNo String" style="shape=partialRectangle;connectable=0;fillColor=none;top=0;left=0;bottom=0;right=0;align=left;spacingLeft=6;overflow=hidden;fontStyle=1" vertex="1" parent="DO0bj1hmB-chi1vhj7tz-150">
          <mxGeometry x="30" width="210" height="30" as="geometry" />
        </mxCell>
        <mxCell id="DO0bj1hmB-chi1vhj7tz-174" style="shape=partialRectangle;collapsible=0;dropTarget=0;pointerEvents=0;fillColor=#FF8000;top=0;left=0;bottom=0;right=0;points=[[0,0.5],[1,0.5]];portConstraint=eastwest;" vertex="1" parent="DO0bj1hmB-chi1vhj7tz-131">
          <mxGeometry y="420" width="240" height="30" as="geometry" />
        </mxCell>
        <mxCell id="DO0bj1hmB-chi1vhj7tz-175" style="shape=partialRectangle;connectable=0;fillColor=none;top=0;left=0;bottom=0;right=0;editable=1;overflow=hidden;" vertex="1" parent="DO0bj1hmB-chi1vhj7tz-174">
          <mxGeometry width="30" height="30" as="geometry" />
        </mxCell>
        <mxCell id="DO0bj1hmB-chi1vhj7tz-176" value="workspaceImageURL String" style="shape=partialRectangle;connectable=0;fillColor=none;top=0;left=0;bottom=0;right=0;align=left;spacingLeft=6;overflow=hidden;fontStyle=1" vertex="1" parent="DO0bj1hmB-chi1vhj7tz-174">
          <mxGeometry x="30" width="210" height="30" as="geometry" />
        </mxCell>
        <mxCell id="DO0bj1hmB-chi1vhj7tz-171" style="shape=partialRectangle;collapsible=0;dropTarget=0;pointerEvents=0;fillColor=#FF8000;top=0;left=0;bottom=0;right=0;points=[[0,0.5],[1,0.5]];portConstraint=eastwest;" vertex="1" parent="DO0bj1hmB-chi1vhj7tz-131">
          <mxGeometry y="450" width="240" height="30" as="geometry" />
        </mxCell>
        <mxCell id="DO0bj1hmB-chi1vhj7tz-172" style="shape=partialRectangle;connectable=0;fillColor=none;top=0;left=0;bottom=0;right=0;editable=1;overflow=hidden;" vertex="1" parent="DO0bj1hmB-chi1vhj7tz-171">
          <mxGeometry width="30" height="30" as="geometry" />
        </mxCell>
        <mxCell id="DO0bj1hmB-chi1vhj7tz-173" value="workspaceImageKey String" style="shape=partialRectangle;connectable=0;fillColor=#FF8000;top=0;left=0;bottom=0;right=0;align=left;spacingLeft=6;overflow=hidden;fontStyle=1" vertex="1" parent="DO0bj1hmB-chi1vhj7tz-171">
          <mxGeometry x="30" width="210" height="30" as="geometry" />
        </mxCell>
        <mxCell id="DO0bj1hmB-chi1vhj7tz-179" value="Appointment" style="shape=table;startSize=30;container=1;collapsible=1;childLayout=tableLayout;fixedRows=1;rowLines=0;fontStyle=1;align=center;resizeLast=1;" vertex="1" parent="1">
          <mxGeometry x="920" y="-790" width="240" height="310" as="geometry" />
        </mxCell>
        <mxCell id="DO0bj1hmB-chi1vhj7tz-180" value="" style="shape=partialRectangle;collapsible=0;dropTarget=0;pointerEvents=0;fillColor=none;top=0;left=0;bottom=0;right=0;points=[[0,0.5],[1,0.5]];portConstraint=eastwest;" vertex="1" parent="DO0bj1hmB-chi1vhj7tz-179">
          <mxGeometry y="30" width="240" height="30" as="geometry" />
        </mxCell>
        <mxCell id="DO0bj1hmB-chi1vhj7tz-181" value="PK" style="shape=partialRectangle;connectable=0;fillColor=none;top=0;left=0;bottom=0;right=0;fontStyle=1;overflow=hidden;" vertex="1" parent="DO0bj1hmB-chi1vhj7tz-180">
          <mxGeometry width="30" height="30" as="geometry" />
        </mxCell>
        <mxCell id="DO0bj1hmB-chi1vhj7tz-182" value="_id ObjectId" style="shape=partialRectangle;connectable=0;fillColor=none;top=0;left=0;bottom=0;right=0;align=left;spacingLeft=6;fontStyle=1;overflow=hidden;" vertex="1" parent="DO0bj1hmB-chi1vhj7tz-180">
          <mxGeometry x="30" width="210" height="30" as="geometry" />
        </mxCell>
        <mxCell id="DO0bj1hmB-chi1vhj7tz-186" style="shape=partialRectangle;collapsible=0;dropTarget=0;pointerEvents=0;fillColor=#FF8000;top=0;left=0;bottom=0;right=0;points=[[0,0.5],[1,0.5]];portConstraint=eastwest;" vertex="1" parent="DO0bj1hmB-chi1vhj7tz-179">
          <mxGeometry y="60" width="240" height="30" as="geometry" />
        </mxCell>
        <mxCell id="DO0bj1hmB-chi1vhj7tz-187" value="FK" style="shape=partialRectangle;connectable=0;fillColor=none;top=0;left=0;bottom=0;right=0;editable=1;overflow=hidden;fontStyle=1" vertex="1" parent="DO0bj1hmB-chi1vhj7tz-186">
          <mxGeometry width="30" height="30" as="geometry" />
        </mxCell>
        <mxCell id="DO0bj1hmB-chi1vhj7tz-188" value="workspaceId ObjectId" style="shape=partialRectangle;connectable=0;fillColor=none;top=0;left=0;bottom=0;right=0;align=left;spacingLeft=6;overflow=hidden;fontStyle=1" vertex="1" parent="DO0bj1hmB-chi1vhj7tz-186">
          <mxGeometry x="30" width="210" height="30" as="geometry" />
        </mxCell>
        <mxCell id="DO0bj1hmB-chi1vhj7tz-192" style="shape=partialRectangle;collapsible=0;dropTarget=0;pointerEvents=0;fillColor=none;top=0;left=0;bottom=0;right=0;points=[[0,0.5],[1,0.5]];portConstraint=eastwest;" vertex="1" parent="DO0bj1hmB-chi1vhj7tz-179">
          <mxGeometry y="90" width="240" height="30" as="geometry" />
        </mxCell>
        <mxCell id="DO0bj1hmB-chi1vhj7tz-193" value="FK" style="shape=partialRectangle;connectable=0;fillColor=none;top=0;left=0;bottom=0;right=0;editable=1;overflow=hidden;fontStyle=1" vertex="1" parent="DO0bj1hmB-chi1vhj7tz-192">
          <mxGeometry width="30" height="30" as="geometry" />
        </mxCell>
        <mxCell id="DO0bj1hmB-chi1vhj7tz-194" value="appointedDoctors [ObjectId]" style="shape=partialRectangle;connectable=0;fillColor=none;top=0;left=0;bottom=0;right=0;align=left;spacingLeft=6;overflow=hidden;fontStyle=1" vertex="1" parent="DO0bj1hmB-chi1vhj7tz-192">
          <mxGeometry x="30" width="210" height="30" as="geometry" />
        </mxCell>
        <mxCell id="DO0bj1hmB-chi1vhj7tz-195" style="shape=partialRectangle;collapsible=0;dropTarget=0;pointerEvents=0;fillColor=none;top=0;left=0;bottom=0;right=0;points=[[0,0.5],[1,0.5]];portConstraint=eastwest;" vertex="1" parent="DO0bj1hmB-chi1vhj7tz-179">
          <mxGeometry y="120" width="240" height="30" as="geometry" />
        </mxCell>
        <mxCell id="DO0bj1hmB-chi1vhj7tz-196" value="FK" style="shape=partialRectangle;connectable=0;fillColor=none;top=0;left=0;bottom=0;right=0;editable=1;overflow=hidden;fontStyle=1" vertex="1" parent="DO0bj1hmB-chi1vhj7tz-195">
          <mxGeometry width="30" height="30" as="geometry" />
        </mxCell>
        <mxCell id="DO0bj1hmB-chi1vhj7tz-197" value="appointedDoctor ObjectId" style="shape=partialRectangle;connectable=0;fillColor=none;top=0;left=0;bottom=0;right=0;align=left;spacingLeft=6;overflow=hidden;fontStyle=1" vertex="1" parent="DO0bj1hmB-chi1vhj7tz-195">
          <mxGeometry x="30" width="210" height="30" as="geometry" />
        </mxCell>
        <mxCell id="DO0bj1hmB-chi1vhj7tz-183" value="" style="shape=partialRectangle;collapsible=0;dropTarget=0;pointerEvents=0;fillColor=none;top=0;left=0;bottom=0;right=0;points=[[0,0.5],[1,0.5]];portConstraint=eastwest;" vertex="1" parent="DO0bj1hmB-chi1vhj7tz-179">
          <mxGeometry y="150" width="240" height="30" as="geometry" />
        </mxCell>
        <mxCell id="DO0bj1hmB-chi1vhj7tz-184" value="" style="shape=partialRectangle;connectable=0;fillColor=none;top=0;left=0;bottom=0;right=0;editable=1;overflow=hidden;" vertex="1" parent="DO0bj1hmB-chi1vhj7tz-183">
          <mxGeometry width="30" height="30" as="geometry" />
        </mxCell>
        <mxCell id="DO0bj1hmB-chi1vhj7tz-185" value="patientDeatils {patient}" style="shape=partialRectangle;connectable=0;fillColor=none;top=0;left=0;bottom=0;right=0;align=left;spacingLeft=6;overflow=hidden;fontStyle=1" vertex="1" parent="DO0bj1hmB-chi1vhj7tz-183">
          <mxGeometry x="30" width="210" height="30" as="geometry" />
        </mxCell>
        <mxCell id="DO0bj1hmB-chi1vhj7tz-189" style="shape=partialRectangle;collapsible=0;dropTarget=0;pointerEvents=0;fillColor=none;top=0;left=0;bottom=0;right=0;points=[[0,0.5],[1,0.5]];portConstraint=eastwest;" vertex="1" parent="DO0bj1hmB-chi1vhj7tz-179">
          <mxGeometry y="180" width="240" height="30" as="geometry" />
        </mxCell>
        <mxCell id="DO0bj1hmB-chi1vhj7tz-190" style="shape=partialRectangle;connectable=0;fillColor=none;top=0;left=0;bottom=0;right=0;editable=1;overflow=hidden;" vertex="1" parent="DO0bj1hmB-chi1vhj7tz-189">
          <mxGeometry width="30" height="30" as="geometry" />
        </mxCell>
        <mxCell id="DO0bj1hmB-chi1vhj7tz-191" value="prescriptionDetails {prescription}" style="shape=partialRectangle;connectable=0;fillColor=none;top=0;left=0;bottom=0;right=0;align=left;spacingLeft=6;overflow=hidden;fontStyle=1" vertex="1" parent="DO0bj1hmB-chi1vhj7tz-189">
          <mxGeometry x="30" width="210" height="30" as="geometry" />
        </mxCell>
        <mxCell id="DO0bj1hmB-chi1vhj7tz-204" style="shape=partialRectangle;collapsible=0;dropTarget=0;pointerEvents=0;fillColor=none;top=0;left=0;bottom=0;right=0;points=[[0,0.5],[1,0.5]];portConstraint=eastwest;" vertex="1" parent="DO0bj1hmB-chi1vhj7tz-179">
          <mxGeometry y="210" width="240" height="30" as="geometry" />
        </mxCell>
        <mxCell id="DO0bj1hmB-chi1vhj7tz-205" style="shape=partialRectangle;connectable=0;fillColor=none;top=0;left=0;bottom=0;right=0;editable=1;overflow=hidden;" vertex="1" parent="DO0bj1hmB-chi1vhj7tz-204">
          <mxGeometry width="30" height="30" as="geometry" />
        </mxCell>
        <mxCell id="DO0bj1hmB-chi1vhj7tz-206" value="visitType String" style="shape=partialRectangle;connectable=0;fillColor=none;top=0;left=0;bottom=0;right=0;align=left;spacingLeft=6;overflow=hidden;fontStyle=1" vertex="1" parent="DO0bj1hmB-chi1vhj7tz-204">
          <mxGeometry x="30" width="210" height="30" as="geometry" />
        </mxCell>
        <mxCell id="DO0bj1hmB-chi1vhj7tz-201" style="shape=partialRectangle;collapsible=0;dropTarget=0;pointerEvents=0;fillColor=none;top=0;left=0;bottom=0;right=0;points=[[0,0.5],[1,0.5]];portConstraint=eastwest;" vertex="1" parent="DO0bj1hmB-chi1vhj7tz-179">
          <mxGeometry y="240" width="240" height="30" as="geometry" />
        </mxCell>
        <mxCell id="DO0bj1hmB-chi1vhj7tz-202" style="shape=partialRectangle;connectable=0;fillColor=none;top=0;left=0;bottom=0;right=0;editable=1;overflow=hidden;" vertex="1" parent="DO0bj1hmB-chi1vhj7tz-201">
          <mxGeometry width="30" height="30" as="geometry" />
        </mxCell>
        <mxCell id="DO0bj1hmB-chi1vhj7tz-203" value="status String" style="shape=partialRectangle;connectable=0;fillColor=none;top=0;left=0;bottom=0;right=0;align=left;spacingLeft=6;overflow=hidden;fontStyle=1" vertex="1" parent="DO0bj1hmB-chi1vhj7tz-201">
          <mxGeometry x="30" width="210" height="30" as="geometry" />
        </mxCell>
        <mxCell id="DO0bj1hmB-chi1vhj7tz-198" style="shape=partialRectangle;collapsible=0;dropTarget=0;pointerEvents=0;fillColor=none;top=0;left=0;bottom=0;right=0;points=[[0,0.5],[1,0.5]];portConstraint=eastwest;" vertex="1" parent="DO0bj1hmB-chi1vhj7tz-179">
          <mxGeometry y="270" width="240" height="30" as="geometry" />
        </mxCell>
        <mxCell id="DO0bj1hmB-chi1vhj7tz-199" style="shape=partialRectangle;connectable=0;fillColor=none;top=0;left=0;bottom=0;right=0;editable=1;overflow=hidden;" vertex="1" parent="DO0bj1hmB-chi1vhj7tz-198">
          <mxGeometry width="30" height="30" as="geometry" />
        </mxCell>
        <mxCell id="DO0bj1hmB-chi1vhj7tz-200" value="createdOn Date" style="shape=partialRectangle;connectable=0;fillColor=none;top=0;left=0;bottom=0;right=0;align=left;spacingLeft=6;overflow=hidden;fontStyle=1" vertex="1" parent="DO0bj1hmB-chi1vhj7tz-198">
          <mxGeometry x="30" width="210" height="30" as="geometry" />
        </mxCell>
        <mxCell id="DO0bj1hmB-chi1vhj7tz-210" style="edgeStyle=orthogonalEdgeStyle;rounded=0;jumpStyle=arc;orthogonalLoop=1;jettySize=auto;html=1;exitX=0;exitY=0.5;exitDx=0;exitDy=0;entryX=0;entryY=0.5;entryDx=0;entryDy=0;startArrow=ERoneToMany;startFill=0;endArrow=ERoneToMany;endFill=0;" edge="1" parent="1" source="DO0bj1hmB-chi1vhj7tz-192" target="DO0bj1hmB-chi1vhj7tz-52">
          <mxGeometry relative="1" as="geometry" />
        </mxCell>
        <mxCell id="DO0bj1hmB-chi1vhj7tz-211" style="edgeStyle=orthogonalEdgeStyle;rounded=0;jumpStyle=arc;orthogonalLoop=1;jettySize=auto;html=1;exitX=0;exitY=0.5;exitDx=0;exitDy=0;entryX=1;entryY=0.5;entryDx=0;entryDy=0;startArrow=ERone;startFill=0;endArrow=ERoneToMany;endFill=0;" edge="1" parent="1" source="DO0bj1hmB-chi1vhj7tz-180" target="DO0bj1hmB-chi1vhj7tz-124">
          <mxGeometry relative="1" as="geometry">
            <Array as="points">
              <mxPoint x="830" y="-745" />
              <mxPoint x="830" y="-475" />
            </Array>
          </mxGeometry>
        </mxCell>
        <mxCell id="DO0bj1hmB-chi1vhj7tz-212" style="edgeStyle=orthogonalEdgeStyle;rounded=0;jumpStyle=arc;orthogonalLoop=1;jettySize=auto;html=1;exitX=0;exitY=0.5;exitDx=0;exitDy=0;entryX=1;entryY=0.5;entryDx=0;entryDy=0;startArrow=ERone;startFill=0;endArrow=ERoneToMany;endFill=0;" edge="1" parent="1" source="DO0bj1hmB-chi1vhj7tz-180" target="DO0bj1hmB-chi1vhj7tz-165">
          <mxGeometry relative="1" as="geometry">
            <Array as="points">
              <mxPoint x="400" y="-745" />
              <mxPoint x="400" y="-445" />
            </Array>
          </mxGeometry>
        </mxCell>
        <mxCell id="DO0bj1hmB-chi1vhj7tz-213" value="Staff" style="shape=table;startSize=30;container=1;collapsible=1;childLayout=tableLayout;fixedRows=1;rowLines=0;fontStyle=1;align=center;resizeLast=1;" vertex="1" parent="1">
          <mxGeometry x="1300" y="-400" width="200" height="310" as="geometry" />
        </mxCell>
        <mxCell id="DO0bj1hmB-chi1vhj7tz-214" value="" style="shape=partialRectangle;collapsible=0;dropTarget=0;pointerEvents=0;fillColor=none;top=0;left=0;bottom=0;right=0;points=[[0,0.5],[1,0.5]];portConstraint=eastwest;" vertex="1" parent="DO0bj1hmB-chi1vhj7tz-213">
          <mxGeometry y="30" width="200" height="30" as="geometry" />
        </mxCell>
        <mxCell id="DO0bj1hmB-chi1vhj7tz-215" value="PK" style="shape=partialRectangle;connectable=0;fillColor=none;top=0;left=0;bottom=0;right=0;fontStyle=1;overflow=hidden;" vertex="1" parent="DO0bj1hmB-chi1vhj7tz-214">
          <mxGeometry width="30" height="30" as="geometry" />
        </mxCell>
        <mxCell id="DO0bj1hmB-chi1vhj7tz-216" value="_id ObjectId" style="shape=partialRectangle;connectable=0;fillColor=none;top=0;left=0;bottom=0;right=0;align=left;spacingLeft=6;fontStyle=1;overflow=hidden;" vertex="1" parent="DO0bj1hmB-chi1vhj7tz-214">
          <mxGeometry x="30" width="170" height="30" as="geometry" />
        </mxCell>
        <mxCell id="DO0bj1hmB-chi1vhj7tz-217" value="" style="shape=partialRectangle;collapsible=0;dropTarget=0;pointerEvents=0;fillColor=none;top=0;left=0;bottom=0;right=0;points=[[0,0.5],[1,0.5]];portConstraint=eastwest;" vertex="1" parent="DO0bj1hmB-chi1vhj7tz-213">
          <mxGeometry y="60" width="200" height="30" as="geometry" />
        </mxCell>
        <mxCell id="DO0bj1hmB-chi1vhj7tz-218" value="FK" style="shape=partialRectangle;connectable=0;fillColor=none;top=0;left=0;bottom=0;right=0;editable=1;overflow=hidden;fontStyle=1" vertex="1" parent="DO0bj1hmB-chi1vhj7tz-217">
          <mxGeometry width="30" height="30" as="geometry" />
        </mxCell>
        <mxCell id="DO0bj1hmB-chi1vhj7tz-219" value="userid ObjectId" style="shape=partialRectangle;connectable=0;fillColor=none;top=0;left=0;bottom=0;right=0;align=left;spacingLeft=6;overflow=hidden;fontStyle=1" vertex="1" parent="DO0bj1hmB-chi1vhj7tz-217">
          <mxGeometry x="30" width="170" height="30" as="geometry" />
        </mxCell>
        <mxCell id="DO0bj1hmB-chi1vhj7tz-231" style="shape=partialRectangle;collapsible=0;dropTarget=0;pointerEvents=0;fillColor=#FF8000;top=0;left=0;bottom=0;right=0;points=[[0,0.5],[1,0.5]];portConstraint=eastwest;" vertex="1" parent="DO0bj1hmB-chi1vhj7tz-213">
          <mxGeometry y="90" width="200" height="30" as="geometry" />
        </mxCell>
        <mxCell id="DO0bj1hmB-chi1vhj7tz-232" value="FK" style="shape=partialRectangle;connectable=0;fillColor=none;top=0;left=0;bottom=0;right=0;editable=1;overflow=hidden;fontStyle=1" vertex="1" parent="DO0bj1hmB-chi1vhj7tz-231">
          <mxGeometry width="30" height="30" as="geometry" />
        </mxCell>
        <mxCell id="DO0bj1hmB-chi1vhj7tz-233" value="activeWorkspace: ObjectId" style="shape=partialRectangle;connectable=0;fillColor=none;top=0;left=0;bottom=0;right=0;align=left;spacingLeft=6;overflow=hidden;fontStyle=1" vertex="1" parent="DO0bj1hmB-chi1vhj7tz-231">
          <mxGeometry x="30" width="170" height="30" as="geometry" />
        </mxCell>
        <mxCell id="DO0bj1hmB-chi1vhj7tz-220" style="shape=partialRectangle;collapsible=0;dropTarget=0;pointerEvents=0;fillColor=none;top=0;left=0;bottom=0;right=0;points=[[0,0.5],[1,0.5]];portConstraint=eastwest;" vertex="1" parent="DO0bj1hmB-chi1vhj7tz-213">
          <mxGeometry y="120" width="200" height="30" as="geometry" />
        </mxCell>
        <mxCell id="DO0bj1hmB-chi1vhj7tz-221" style="shape=partialRectangle;connectable=0;fillColor=none;top=0;left=0;bottom=0;right=0;editable=1;overflow=hidden;" vertex="1" parent="DO0bj1hmB-chi1vhj7tz-220">
          <mxGeometry width="30" height="30" as="geometry" />
        </mxCell>
        <mxCell id="DO0bj1hmB-chi1vhj7tz-222" value="firstName String" style="shape=partialRectangle;connectable=0;fillColor=none;top=0;left=0;bottom=0;right=0;align=left;spacingLeft=6;overflow=hidden;fontStyle=1" vertex="1" parent="DO0bj1hmB-chi1vhj7tz-220">
          <mxGeometry x="30" width="170" height="30" as="geometry" />
        </mxCell>
        <mxCell id="DO0bj1hmB-chi1vhj7tz-223" style="shape=partialRectangle;collapsible=0;dropTarget=0;pointerEvents=0;fillColor=none;top=0;left=0;bottom=0;right=0;points=[[0,0.5],[1,0.5]];portConstraint=eastwest;" vertex="1" parent="DO0bj1hmB-chi1vhj7tz-213">
          <mxGeometry y="150" width="200" height="30" as="geometry" />
        </mxCell>
        <mxCell id="DO0bj1hmB-chi1vhj7tz-224" style="shape=partialRectangle;connectable=0;fillColor=none;top=0;left=0;bottom=0;right=0;editable=1;overflow=hidden;" vertex="1" parent="DO0bj1hmB-chi1vhj7tz-223">
          <mxGeometry width="30" height="30" as="geometry" />
        </mxCell>
        <mxCell id="DO0bj1hmB-chi1vhj7tz-225" value="middleName String" style="shape=partialRectangle;connectable=0;fillColor=none;top=0;left=0;bottom=0;right=0;align=left;spacingLeft=6;overflow=hidden;fontStyle=1" vertex="1" parent="DO0bj1hmB-chi1vhj7tz-223">
          <mxGeometry x="30" width="170" height="30" as="geometry" />
        </mxCell>
        <mxCell id="DO0bj1hmB-chi1vhj7tz-226" style="shape=partialRectangle;collapsible=0;dropTarget=0;pointerEvents=0;fillColor=none;top=0;left=0;bottom=0;right=0;points=[[0,0.5],[1,0.5]];portConstraint=eastwest;" vertex="1" parent="DO0bj1hmB-chi1vhj7tz-213">
          <mxGeometry y="180" width="200" height="30" as="geometry" />
        </mxCell>
        <mxCell id="DO0bj1hmB-chi1vhj7tz-227" style="shape=partialRectangle;connectable=0;fillColor=none;top=0;left=0;bottom=0;right=0;editable=1;overflow=hidden;" vertex="1" parent="DO0bj1hmB-chi1vhj7tz-226">
          <mxGeometry width="30" height="30" as="geometry" />
        </mxCell>
        <mxCell id="DO0bj1hmB-chi1vhj7tz-228" value="lastName String" style="shape=partialRectangle;connectable=0;fillColor=none;top=0;left=0;bottom=0;right=0;align=left;spacingLeft=6;overflow=hidden;fontStyle=1" vertex="1" parent="DO0bj1hmB-chi1vhj7tz-226">
          <mxGeometry x="30" width="170" height="30" as="geometry" />
        </mxCell>
        <mxCell id="DO0bj1hmB-chi1vhj7tz-240" style="shape=partialRectangle;collapsible=0;dropTarget=0;pointerEvents=0;fillColor=none;top=0;left=0;bottom=0;right=0;points=[[0,0.5],[1,0.5]];portConstraint=eastwest;" vertex="1" parent="DO0bj1hmB-chi1vhj7tz-213">
          <mxGeometry y="210" width="200" height="30" as="geometry" />
        </mxCell>
        <mxCell id="DO0bj1hmB-chi1vhj7tz-241" style="shape=partialRectangle;connectable=0;fillColor=none;top=0;left=0;bottom=0;right=0;editable=1;overflow=hidden;" vertex="1" parent="DO0bj1hmB-chi1vhj7tz-240">
          <mxGeometry width="30" height="30" as="geometry" />
        </mxCell>
        <mxCell id="DO0bj1hmB-chi1vhj7tz-242" value="onBoardingDone Boolean" style="shape=partialRectangle;connectable=0;fillColor=none;top=0;left=0;bottom=0;right=0;align=left;spacingLeft=6;overflow=hidden;fontStyle=1" vertex="1" parent="DO0bj1hmB-chi1vhj7tz-240">
          <mxGeometry x="30" width="170" height="30" as="geometry" />
        </mxCell>
        <mxCell id="DO0bj1hmB-chi1vhj7tz-237" style="shape=partialRectangle;collapsible=0;dropTarget=0;pointerEvents=0;fillColor=none;top=0;left=0;bottom=0;right=0;points=[[0,0.5],[1,0.5]];portConstraint=eastwest;" vertex="1" parent="DO0bj1hmB-chi1vhj7tz-213">
          <mxGeometry y="240" width="200" height="30" as="geometry" />
        </mxCell>
        <mxCell id="DO0bj1hmB-chi1vhj7tz-238" style="shape=partialRectangle;connectable=0;fillColor=none;top=0;left=0;bottom=0;right=0;editable=1;overflow=hidden;" vertex="1" parent="DO0bj1hmB-chi1vhj7tz-237">
          <mxGeometry width="30" height="30" as="geometry" />
        </mxCell>
        <mxCell id="DO0bj1hmB-chi1vhj7tz-239" value="phonePrimary String" style="shape=partialRectangle;connectable=0;fillColor=none;top=0;left=0;bottom=0;right=0;align=left;spacingLeft=6;overflow=hidden;fontStyle=1" vertex="1" parent="DO0bj1hmB-chi1vhj7tz-237">
          <mxGeometry x="30" width="170" height="30" as="geometry" />
        </mxCell>
        <mxCell id="DO0bj1hmB-chi1vhj7tz-234" style="shape=partialRectangle;collapsible=0;dropTarget=0;pointerEvents=0;fillColor=none;top=0;left=0;bottom=0;right=0;points=[[0,0.5],[1,0.5]];portConstraint=eastwest;" vertex="1" parent="DO0bj1hmB-chi1vhj7tz-213">
          <mxGeometry y="270" width="200" height="30" as="geometry" />
        </mxCell>
        <mxCell id="DO0bj1hmB-chi1vhj7tz-235" style="shape=partialRectangle;connectable=0;fillColor=none;top=0;left=0;bottom=0;right=0;editable=1;overflow=hidden;" vertex="1" parent="DO0bj1hmB-chi1vhj7tz-234">
          <mxGeometry width="30" height="30" as="geometry" />
        </mxCell>
        <mxCell id="DO0bj1hmB-chi1vhj7tz-236" value="phonePrimaryEx String" style="shape=partialRectangle;connectable=0;fillColor=none;top=0;left=0;bottom=0;right=0;align=left;spacingLeft=6;overflow=hidden;fontStyle=1" vertex="1" parent="DO0bj1hmB-chi1vhj7tz-234">
          <mxGeometry x="30" width="170" height="30" as="geometry" />
        </mxCell>
        <mxCell id="DO0bj1hmB-chi1vhj7tz-230" style="edgeStyle=orthogonalEdgeStyle;rounded=0;jumpStyle=arc;orthogonalLoop=1;jettySize=auto;html=1;exitX=0;exitY=0.5;exitDx=0;exitDy=0;entryX=1;entryY=0.5;entryDx=0;entryDy=0;startArrow=ERone;startFill=0;endArrow=ERone;endFill=0;" edge="1" parent="1" source="DO0bj1hmB-chi1vhj7tz-217" target="DO0bj1hmB-chi1vhj7tz-2">
          <mxGeometry relative="1" as="geometry" />
        </mxCell>
        <mxCell id="DO0bj1hmB-chi1vhj7tz-243" style="edgeStyle=orthogonalEdgeStyle;rounded=0;jumpStyle=arc;orthogonalLoop=1;jettySize=auto;html=1;exitX=0;exitY=0.5;exitDx=0;exitDy=0;entryX=1;entryY=0.5;entryDx=0;entryDy=0;startArrow=ERone;startFill=0;endArrow=ERone;endFill=0;" edge="1" parent="1" source="DO0bj1hmB-chi1vhj7tz-231" target="DO0bj1hmB-chi1vhj7tz-132">
          <mxGeometry relative="1" as="geometry">
            <Array as="points">
              <mxPoint x="1260" y="-295" />
              <mxPoint x="1260" y="-820" />
              <mxPoint x="330" y="-820" />
              <mxPoint x="330" y="-505" />
            </Array>
          </mxGeometry>
        </mxCell>
        <mxCell id="DO0bj1hmB-chi1vhj7tz-244" style="edgeStyle=orthogonalEdgeStyle;rounded=0;jumpStyle=arc;orthogonalLoop=1;jettySize=auto;html=1;exitX=1;exitY=0.5;exitDx=0;exitDy=0;startArrow=ERone;startFill=0;endArrow=ERone;endFill=0;" edge="1" parent="1" source="DO0bj1hmB-chi1vhj7tz-132" target="DO0bj1hmB-chi1vhj7tz-186">
          <mxGeometry relative="1" as="geometry">
            <Array as="points">
              <mxPoint x="360" y="-505" />
              <mxPoint x="360" y="-715" />
            </Array>
          </mxGeometry>
        </mxCell>
        <mxCell id="DO0bj1hmB-chi1vhj7tz-245" style="edgeStyle=orthogonalEdgeStyle;rounded=0;jumpStyle=arc;orthogonalLoop=1;jettySize=auto;html=1;exitX=1;exitY=0.5;exitDx=0;exitDy=0;entryX=0;entryY=0.5;entryDx=0;entryDy=0;startArrow=ERone;startFill=0;endArrow=ERoneToMany;endFill=0;" edge="1" parent="1" source="DO0bj1hmB-chi1vhj7tz-52" target="DO0bj1hmB-chi1vhj7tz-195">
          <mxGeometry relative="1" as="geometry">
            <Array as="points">
              <mxPoint x="870" y="-565" />
              <mxPoint x="870" y="-655" />
            </Array>
          </mxGeometry>
        </mxCell>
        <mxCell id="DO0bj1hmB-chi1vhj7tz-246" style="edgeStyle=orthogonalEdgeStyle;rounded=0;jumpStyle=arc;orthogonalLoop=1;jettySize=auto;html=1;exitX=1;exitY=0.5;exitDx=0;exitDy=0;entryX=0;entryY=0.5;entryDx=0;entryDy=0;startArrow=ERone;startFill=0;endArrow=ERone;endFill=0;" edge="1" parent="1" source="DO0bj1hmB-chi1vhj7tz-67" target="DO0bj1hmB-chi1vhj7tz-2">
          <mxGeometry relative="1" as="geometry" />
        </mxCell>
        <mxCell id="DO0bj1hmB-chi1vhj7tz-247" style="edgeStyle=orthogonalEdgeStyle;rounded=0;jumpStyle=arc;orthogonalLoop=1;jettySize=auto;html=1;exitX=1;exitY=0.5;exitDx=0;exitDy=0;entryX=0;entryY=0.5;entryDx=0;entryDy=0;startArrow=ERoneToMany;startFill=0;endArrow=ERoneToMany;endFill=0;" edge="1" parent="1" source="DO0bj1hmB-chi1vhj7tz-168" target="DO0bj1hmB-chi1vhj7tz-67">
          <mxGeometry relative="1" as="geometry">
            <Array as="points">
              <mxPoint x="380" y="-475" />
              <mxPoint x="380" y="-535" />
            </Array>
          </mxGeometry>
        </mxCell>
        <mxCell id="DO0bj1hmB-chi1vhj7tz-248" style="edgeStyle=orthogonalEdgeStyle;rounded=0;jumpStyle=arc;orthogonalLoop=1;jettySize=auto;html=1;exitX=1;exitY=0.5;exitDx=0;exitDy=0;entryX=0;entryY=0.5;entryDx=0;entryDy=0;startArrow=ERone;startFill=0;endArrow=ERoneToMany;endFill=0;" edge="1" parent="1" source="DO0bj1hmB-chi1vhj7tz-132" target="DO0bj1hmB-chi1vhj7tz-121">
          <mxGeometry relative="1" as="geometry">
            <Array as="points">
              <mxPoint x="420" y="-505" />
              <mxPoint x="420" y="-505" />
            </Array>
          </mxGeometry>
        </mxCell>
      </root>
    </mxGraphModel>
  </diagram>
</mxfile>
